<?xml version="1.0" encoding="utf-8"?>
<!-- Generator: Adobe Illustrator 19.0.0, SVG Export Plug-In . SVG Version: 6.00 Build 0)  -->
<svg version="1.1" id="Layer_1" xmlns="http://www.w3.org/2000/svg" xmlns:xlink="http://www.w3.org/1999/xlink" x="0px" y="0px"
	 viewBox="438 -535.8 1061.8 1121.8" style="enable-background:new 438 -535.8 1061.8 1121.8;" xml:space="preserve">
<style type="text/css">
	.st0{fill:#FF0000;}
</style>
<g>
	<path class="st0" d="M1048.4-176.9l-0.6,1.2c0,0-0.4,0.1-1.1,0.3c-0.7,0.2-1.8,0.5-3.1,0.8c-1.3,0.3-2.9,0.5-4.7,0.7
		c-1.8,0.2-3.8,0.3-6,0.3c-3.7,0-7.9-0.3-12.2-1.2c0.8,2.4,1.2,4.9,1.2,7.5c0,13.2-10.8,24-24,24s-24-10.8-24-24
		c0-9.3,5.3-17.4,13.1-21.4c-2.4-1.2-4.7-2.3-6.8-3.4c-2.2-1.1-4.2-2.3-6.1-3.3c-1.9-1.1-3.6-2.1-5.1-3c-1.5-0.9-2.8-1.7-3.8-2.4
		s-1.9-1.2-2.4-1.6c-0.6-0.4-0.8-0.6-0.8-0.6l0.7-1.3c0,0,1.3,0.4,3.7,1.2c1.2,0.4,2.6,0.8,4.3,1.3c1.6,0.5,3.5,1,5.6,1.6
		c2,0.5,4.2,1.2,6.6,1.7c2.3,0.6,4.8,1.2,7.4,1.8c2.5,0.6,5.2,1.2,7.9,1.9c2.7,0.6,5.4,1.2,8.1,1.8c2.7,0.6,5.5,1,8.2,1.4
		c1.4,0.2,2.7,0.4,4.1,0.6c1.3,0.2,2.6,0.5,3.9,0.8c2.5,0.6,4.9,1.4,7.1,2.4c1.1,0.4,2.2,0.9,3.2,1.3c1,0.5,2,0.9,3,1.4
		c1.9,0.9,3.6,2,5.2,2.9c1.6,0.9,2.9,1.8,4,2.6s1.9,1.5,2.5,1.9C1048.1-177.2,1048.4-176.9,1048.4-176.9z"/>
	<path class="st0" d="M1085-354.5C1085.1-354.7,1085-354.4,1085-354.5L1085-354.5z"/>
	<path class="st0" d="M737.2-101.9c0,0-1.2,0.9-3.5,2.2c-1.1,0.7-2.5,1.5-4.1,2.3c-1.6,0.9-3.4,1.9-5.4,2.8c-2,1-4.2,2-6.5,3.1
		c-2.3,1-4.9,2.1-7.5,3.1c-2.6,1-5.4,2-8.2,2.9c-2.8,0.9-5.7,1.7-8.7,2.4c-3,0.8-5.9,1.5-8.8,2.3c-1.5,0.4-3,0.7-4.4,1
		c-1.5,0.3-2.9,0.4-4.4,0.5c-2.9,0.2-5.7,0-8.4-0.4c-2.7-0.4-5.1-0.9-7.4-1.6c-2.3-0.6-4.3-1.5-6.1-2.2c-1.8-0.8-3.3-1.7-4.5-2.4
		c-1.1-0.8-2-1.4-2.6-1.9c-0.6-0.5-0.9-0.8-0.9-0.8v-1.1c0,0,0.4-0.1,1.1-0.4c0.7-0.2,1.8-0.5,3.2-0.8c1.3-0.3,2.9-0.7,4.6-1
		c1.8-0.4,3.7-0.7,5.8-1.1c1.1-0.2,2.1-0.3,3.3-0.5c1.1-0.1,2.3-0.3,3.5-0.5c2.4-0.3,4.8-0.6,7.4-0.7c2.6-0.1,5.3,0,8,0.1
		c1.4,0,2.8,0.1,4.2,0.1c1.4,0,2.8-0.1,4.2-0.2c2.8-0.2,5.6-0.6,8.4-0.9c2.8-0.4,5.5-0.7,8.2-1.2c2.7-0.4,5.2-0.9,7.7-1.3
		c2.4-0.5,4.7-0.9,6.9-1.4c2.1-0.5,4.1-0.9,5.8-1.4c1.7-0.4,3.2-0.8,4.5-1.2c2.5-0.7,3.9-1.1,3.9-1.1L737.2-101.9z"/>
	<path class="st0" d="M789.9-1.5c0,0.6,0,1.3-0.1,1.9c0,0.6-0.1,1.2-0.2,1.8c-0.4,2.4-1.4,4.3-2.3,5.8c-0.5,0.8-1,1.4-1.5,2
		c-0.5,0.6-1,1-1.5,1.5c-0.2,0.2-0.4,0.4-0.7,0.6c-0.2,0.2-0.4,0.3-0.6,0.4c-0.4,0.3-0.7,0.5-1,0.7c-0.4,0.3-0.7,0.5-0.8,0.5
		c0-0.1,0.1-0.4,0.4-0.9c0.3-0.6,0.7-1.4,1.1-2.5c0.2-0.5,0.5-1.1,0.6-1.7c0.1-0.7,0.4-1.3,0.5-2c0.2-1.5,0.4-3,0.1-4.6
		c0-0.8-0.3-1.6-0.5-2.5c-0.3-0.8-0.6-1.7-1.1-2.5c-0.8-1.7-1.9-3.3-3.3-5l-0.5-0.6c-0.2-0.2-0.4-0.4-0.6-0.6
		c-0.4-0.4-0.7-0.8-1.1-1.2c-0.8-0.8-1.6-1.6-2.5-2.3c-0.8-0.8-1.8-1.5-2.7-2.3c-1-0.7-1.9-1.5-2.9-2.1c-2-1.4-4.1-2.7-6.1-4
		c-2.1-1.2-4.2-2.4-6.3-3.4c-2.1-1.1-4.1-2-6.1-2.9c-2-0.8-3.9-1.6-5.7-2.3c-1.8-0.7-3.5-1.2-5-1.7c-0.8-0.2-1.5-0.4-2.1-0.6
		c-0.7-0.2-1.3-0.3-1.8-0.5c-1.1-0.3-2.1-0.5-2.7-0.6c-1.1,0-1.4-0.1-1.4-0.1s0.3-0.1,0.9-0.3c0.6-0.2,1.5-0.6,2.7-0.8
		c0.6-0.1,1.3-0.3,2-0.4c0.7-0.1,1.5-0.2,2.4-0.3c1.7-0.2,3.6-0.2,5.7-0.2c1.1,0,2.1,0.2,3.3,0.2c1.1,0.1,2.3,0.3,3.5,0.5
		c2.4,0.5,4.8,1,7.3,1.9c0.6,0.2,1.3,0.4,1.9,0.6c0.6,0.2,1.2,0.5,1.9,0.7c1.3,0.5,2.5,1.1,3.8,1.7c2.5,1.2,4.9,2.7,7.3,4.3
		c1.2,0.8,2.3,1.7,3.4,2.6c1.1,0.9,2.2,1.9,3.2,2.9c2.1,2,3.8,4.3,5.3,6.7c1.5,2.4,2.6,5,3.2,7.7C789.6-4.1,789.8-2.7,789.9-1.5z"/>
	<path class="st0" d="M1078.4,350.6c-0.1,2.3-0.2,4-0.3,5.3c-0.1,1.2-0.2,1.9-0.2,1.9l-1.6,0.1c0,0-0.3-0.6-0.9-1.6
		c-0.6-1.1-1.4-2.7-2.4-4.7s-2.1-4.5-3.3-7.4c-0.6-1.4-1.2-3-1.8-4.6c-0.6-1.6-1.2-3.4-1.8-5.2c-1.2-3.6-2.4-7.6-3.6-11.8
		c-1.1-4.2-2.1-8.7-2.9-13.4c-0.4-2.3-0.7-4.7-0.9-7.2c-0.3-2.4-0.4-4.9-0.7-7.4c-0.2-2.5-0.4-5-0.6-7.5c-0.2-2.5-0.4-5-0.6-7.6
		c-0.5-5-0.8-10.1-1.2-15c-0.4-5-0.6-9.9-0.8-14.6c-0.2-4.7-0.4-9.3-0.4-13.7c-0.1-4.3-0.1-8.5-0.1-12.2c0-1.9,0-3.7,0.1-5.4
		c0-1.7,0.1-3.4,0.1-4.9c0.1-1.5,0.1-3,0.2-4.3c0.1-1.3,0.1-2.6,0.2-3.7c0.1-2.2,0.3-3.9,0.4-5.1c0.1-1.2,0.2-1.8,0.2-1.8h1.5
		c0,0,0,0.6,0.1,1.8c0.1,1.2,0.3,2.9,0.5,5.1c0.2,2.2,0.5,4.8,0.9,7.9c0.4,3,0.8,6.4,1.3,10.2c0.5,3.7,1.1,7.7,1.7,12
		c0.6,4.2,1.4,8.7,2.1,13.3c0.8,4.6,1.6,9.4,2.5,14.2c0.9,4.8,1.7,9.8,2.7,14.6c1,4.9,2,9.8,3.2,14.6s2.3,9.5,3.1,14.1
		c0.9,4.6,1.4,9.1,1.8,13.4c0.5,4.3,0.8,8.3,1.1,12.1c0.2,3.8,0.3,7.2,0.4,10.4C1078.5,345.6,1078.5,348.3,1078.4,350.6z"/>
	<path class="st0" d="M1149.5-231.5c-7.2,8.8-14,2.4-14,2.4s-22.3,21.2-19.9,13.5c16.9-14.6,15-37,15-37l-15,6.7
		c0.5-0.8,19.5-35.1,7.6-29.9c-12.1,5.2-22.6-12.2-22.6-12.2l15.1-21.7c0,0-19.4-22.3,0-14.8C1135.1-317,1162.8-247.6,1149.5-231.5z
		"/>
	<path class="st0" d="M1482-9.8c0-69.3-13.6-136.4-40.3-199.7c-25.8-61.1-62.8-116-109.9-163.1s-102-84.1-163.1-109.9
		c-63.2-26.8-130.4-40.3-199.7-40.3s-136.4,13.6-199.7,40.3c-61.1,25.8-116,62.8-163.1,109.9s-84.1,102-109.9,163.1
		C469.6-146.2,456-79.1,456-9.8c0,57,9.3,112.9,27.5,166.3c17.7,51.6,43.4,99.9,76.6,143.6c32.8,43.2,71.9,80.7,116.4,111.7
		c40.7,28.3,84.9,50.3,131.7,65.7l31,86.8l178.4-63.6l237-84.5l178.2-63.6l-30.9-86.8C1454.3,183.5,1482,88.5,1482-9.8z
		 M685.1,399.4c-43.2-30-81.2-66.5-113-108.4c-32.2-42.4-57.2-89.2-74.3-139.4C480,99.8,471,45.5,471-9.8
		c0-67.2,13.2-132.5,39.1-193.8c25.1-59.3,61-112.6,106.7-158.3c45.7-45.7,99-81.6,158.3-106.7c61.4-26,126.6-39.1,193.8-39.1
		s132.5,13.2,193.8,39.1c59.3,25.1,112.6,61,158.3,106.7c45.7,45.7,81.6,99,106.7,158.3c26,61.4,39.1,126.6,39.1,193.8
		c0,99.9-29.4,196.1-85.1,278.5l-2.8,1v0.1l-82.1,29.3c-43-101.9-32.6-212.1-23.3-309.5c3.3-34.3,6.4-66.7,6.9-96.5
		c0.7-38.9-10.4-73-32-100.4c5.2,0.9,12,2.3,16.9,3.6c4.1,1.1-16.3-9.4-26.5-14.6c-1.1-1.1-2.2-2.2-3.4-3.4
		c5.4-1.4,18.7-5.1,17.3-5.9c-0.9-0.6-14.1,0.8-25-4.1c-5.1-2.2,12.7-1.1,9.5-4.4c-3.2-3.3-27.4-10.9-27.4-10.9s16.4-4.8,12-5.8
		c-3.5-0.8-22.7-3-30.5-3.9c0.5-6.8,0.6-14.1,0-21.7c-0.5-5.7-1.5-11.6-3.3-17.6c-0.2-0.7-0.5-1.5-0.8-2.3c-0.3-0.8-0.5-1.4-0.8-2.1
		l-0.5-1.2l-0.5-1.1c-0.4-0.8-0.7-1.5-1.1-2.2c-1.5-2.8-3.1-5.6-4.9-8.2c-3.5-5.3-7.6-10.2-11.8-14.9c-4.3-4.7-8.8-9.2-13.6-13.6
		c-4.8-4.3-9.8-8.5-15.1-12.4c-5.3-4-10.8-7.6-16.7-10.9c-5.9-3.2-12.1-6.2-19.1-8.1c-3.6-0.9-7.3-1.6-11.5-1.5
		c-2.1,0.1-4.3,0.4-6.5,1c-2.2,0.7-4.5,1.7-6.5,3.2s-3.7,3.3-5,5.3c-0.6,1-1.1,2-1.6,3c-0.2,0.5-0.4,1-0.6,1.5
		c-0.1,0.2-0.2,0.5-0.3,0.8s-0.2,0.6-0.2,0.7l-0.2,0.6l-0.1,0.3v0.2l-0.1,0.3l-0.3,1.2c-0.2,0.9-0.4,1.7-0.6,2.5
		c-0.4,1.7-0.8,3.3-1,4.9c-1.1,6.5-1.6,12.8-1.9,18.9c-0.5,12.3,0,24,1,35.1c0.5,5.5,1.1,10.8,1.8,16c0.1,0.6,0.2,1.2,0.3,1.9
		c-0.5,0-0.9,0-1.4,0c-4-2-21.6-10.7-25.3-12.1c-4.2-1.6,6.8,11.5,6.8,11.5s-24.8-11.5-26.8-11.5c-1.6,0,2.2,11.1,3.8,15.5
		c-0.9,0.1-1.9,0.3-2.8,0.4c-7-2.7-22.8-8.7-26.3-8.8c-3.7,0,4.3,8.4,7.9,12c-66.8,13.6-102.2,43.3-126.8,63.9
		c-10.9,9.1-19.5,16.3-26.8,18.5c-9.3,2.8-24.1,1.9-41.2,0.8c-32.7-2.1-77.4-4.9-121.8,16.6c-36.8,17.8-72.9,47.8-99,82.3
		C558.7-46.3,542,0.6,542,47.8c0,15.4,7.1,22.8,13,26.4c13.6,8.2,36.2,4.8,63.2-4.9c-27.4,23.3-28.8,36.1-26.5,44.3
		c1.5,5.5,4.4,9.3,8.5,11.3c2.2,1,4.4,1.5,6.6,1.5c5.2,0,10.7-2.3,16.5-4.7c3.4-1.4,7-2.9,10.7-4c-1.8,10.8-3.1,27,3.2,37.1
		c7.2,11.6,10,25.4,10,25.5c0.7,3.4,3.6,5.9,7,6c0.1,0,0.2,0,0.3,0c3.3,0,6.2-2.2,7.2-5.3l7.2-24.1c1.7,4.2,3.4,8.3,5,11.7
		c2.7,5.9,7.3,6.3,9.1,6.2c8.1-0.4,11.6-10.3,17.3-26.7c0.8-2.4,1.9-5.4,2.8-8c2.5,3.8,5.5,9.4,8,14.8c1.1,2.4,3.5,4.1,6.1,4.4
		c2.7,0.2,5.3-1,6.8-3.2c11.1-15.7,30.5-39.4,38.7-42.8c4-1.7,12.3-2.2,20.4-2.7c6.6-0.4,13.4-0.8,20-1.9
		c21.5-3.4,42.9,2.2,67.7,8.7c28.2,7.4,59.3,15.5,97.8,12.8v9.3l12.7-4.4l1.3,22l15.4-16.7l-8,31.4l7.1-14.3
		c-2.5,20.7-5.3,47-7.2,74.9c-5.6,82.2-1.5,139.9,12.1,171.7l-176.7,63C775.5,452.2,728.2,429.4,685.1,399.4z M1126.2,63.6
		L1126.2,63.6c-1.2,0.8-2.4,1.5-3.7,2.3c0.9,0.8,1.9,1.8,2.2,2.6c-1.2-0.4-3.7-0.4-6.2-0.3c0,0,0,0,0,0c-1,0.6-2.1,1.2-3.1,1.8
		c-0.2,0.1-0.5,0.3-0.7,0.4c1.9,1.1,4,2.4,4.1,3c-1.2-0.3-4.9-0.7-7.9-1h0c-0.5,0.3-1,0.5-1.5,0.8c-0.4,0.2-0.8,0.4-1.2,0.6
		c0.6,0.6,1.3,1.3,2,1.8c0,0.3-2.4-0.1-4.6-0.5c-0.8,0.4-1.7,0.8-2.5,1.2c-2.2,1-4.3,2.1-6.5,3.1c-4.5,2-8.9,4-13.5,5.8
		c-2.3,0.9-4.5,1.8-6.8,2.7c-2.2,0.8-4.5,1.7-6.8,2.5c-4.6,1.7-9,3.3-13.4,4.7c-8.7,2.9-16.9,5.4-24,7.4c-0.6,0.2-1.1,0.3-1.7,0.5
		l-1.1,4.5c0,0,3,4,2.9,6c-3.1-2.1-14.5-4.7-14.5-4.7s6.1,6.6,6,7.9c-2.1-1.5-12.8-6.2-12.8-6.2s1,3.2,2.5,5.3
		c-0.3,0.5-8.7-4.5-8.7-4.5l-2.1-1.4c-53.2,12.6-92.8,2.2-127.8-6.9c-25.3-6.6-49.2-12.9-73.8-9c-5.9,0.9-12.4,1.3-18.6,1.7
		c-3.8,0.2-7.3,0.5-10.7,0.8l7.1-8l-21.7,11c-11.3,4.7-28,25-37.9,38c-8.7-15.4-14.2-16.2-16.3-16.4c-3.3-0.4-6.5,0.8-8.7,3.4
		c-2.6,3.1-4.6,8.8-8.1,18.6c-0.9,2.5-2,5.6-3.1,8.7c-4-9.9-8-20.5-8-20.6c-1.1-3-4.1-5-7.3-4.9c-3.2,0.1-6,2.3-6.9,5.3l-6.8,22.8
		c-1.2-2.5-2.6-5.1-4.1-7.5c-4.2-6.8-2.3-23.2,0.2-33.6c0.3-0.1,0.5-0.1,0.8-0.2c1.6-0.3,3.3-0.8,5.2-1.2c1.9-0.5,3.9-0.9,5.9-1.3
		c2-0.4,4.1-0.9,6.3-1.2s4.4-0.7,6.6-1c2.2-0.4,4.4-0.6,6.6-0.9c2.2-0.2,4.4-0.5,6.5-0.7c2.1-0.2,4.2-0.4,6.1-0.5
		c2-0.1,3.8-0.2,5.5-0.3c1.7-0.1,3.2-0.1,4.6-0.2c1.4-0.1,2.6-0.1,3.6-0.1c2-0.1,3.1-0.1,3.1-0.1s-1.1-0.2-3.1-0.6
		c-0.9-0.2-2.1-0.4-3.5-0.7c-1.4-0.3-2.9-0.5-4.6-0.8s-3.6-0.5-5.5-0.8c-1.9-0.3-4-0.5-6.1-0.8c-2.1-0.3-4.3-0.5-6.6-0.7
		c-2.2-0.2-4.5-0.4-6.8-0.5s-4.6-0.2-6.9-0.3c-2.3-0.1-4.5-0.1-6.7-0.2c-2.2,0-4.3-0.1-6.3,0s-3.9,0.1-5.7,0.2
		c-1.7,0.1-3.4,0.2-4.8,0.3c-0.7,0.1-1.4,0.2-2,0.2c-0.7,0.1-1.3,0.1-1.8,0.2c-2,0.3-3.2,0.4-3.2,0.4l0,0.1
		c-7.3,0.9-14.1,3.8-19.9,6.2c-3.5,1.5-8.7,3.7-10.6,3.5c-0.2-0.3-0.4-0.8-0.7-1.8c-0.5-1.6-2.5-16.7,63.8-59
		c35.8-22.8,73.2-41.8,73.6-42c3.6-1.8,5.1-6.3,3.3-10c-1.8-3.7-6.2-5.2-9.9-3.5c-6.6,3.1-16.4,8.3-27.7,14.4
		c-23.2,12.4-55,29.4-83.8,41.1c-39.9,16.1-56.2,14.8-62.8,10.8c-2.5-1.5-5.7-4.5-5.7-13.5c0-94.3,72-172.2,138.9-204.6
		c40.8-19.8,81.6-17.2,114.3-15.2c6.5,0.4,12.6,0.8,18.5,1c0.2,0.1,0.4,0.2,0.5,0.3c1.1,0.6,2.1,1.3,3.2,2c1.1,0.7,2.2,1.4,3.2,2.2
		c1,0.7,2.1,1.5,3.1,2.3c1.1,0.8,2.1,1.6,3,2.4c1.9,1.6,3.7,3.1,5.1,4.5c2.9,2.7,4.7,4.7,4.7,4.7s-1.3-2.3-3.7-5.5
		c-1.2-1.6-2.6-3.5-4.2-5.4c-0.8-1-1.6-2-2.5-3c-0.8-1-1.8-2-2.7-3c-0.5-0.5-0.9-1-1.4-1.5c4.7-0.1,9-0.4,13-1
		c0.7,0.4,1.5,0.8,2.2,1.2c1,0.7,2.1,1.3,3.2,2c1,0.7,2.1,1.3,3.2,2.1c1.1,0.8,2.2,1.5,3.2,2.3s2,1.5,3,2.3c2,1.5,3.7,3,5.2,4.3
		c3,2.6,4.8,4.6,4.8,4.6s-1.3-2.3-3.6-5.6c-1.1-1.6-2.5-3.5-4.1-5.5c-0.8-1-1.6-2-2.5-3c-0.9-1-1.8-2-2.7-3c-0.9-1.1-1.9-2-2.8-3
		c-0.2-0.3-0.5-0.5-0.8-0.8c2.6-0.9,5.1-2.1,7.7-3.6c0.2,0.1,0.4,0.2,0.7,0.3c0.8,0.4,1.7,0.9,2.7,1.4s2.1,1,3.1,1.6
		s2.1,1.2,3.2,1.9c1.1,0.7,2.2,1.4,3.3,2.1c1,0.7,2.2,1.4,3.2,2.2c1.1,0.7,2.1,1.5,3.1,2.2c2,1.5,3.8,2.9,5.3,4.2
		c3,2.6,4.9,4.5,4.9,4.5s-1.3-2.3-3.5-5.7c-1.1-1.7-2.5-3.7-4-5.7c-0.7-1-1.5-2.1-2.4-3.1c-0.8-1-1.7-2.1-2.6-3.1
		c-0.9-1.1-1.8-2.1-2.7-3.1c-1-1-1.9-2-2.8-2.9s-1.8-1.8-2.7-2.6c0,0,0,0,0-0.1c4.4-3.3,9-7.1,14-11.4c27.4-23,68.7-57.7,155.5-65.9
		c9.3-0.9,18.8-1.4,28.3-1.5c1.7,8.7,3.6,16.7,5.4,23.8c0.5,1.9,1.1,3.7,1.6,5.5c0.6,1.8,1.1,3.5,1.6,5.1c1.1,3.2,2.1,6.2,3.1,8.8
		c1.9,5.3,3.8,9.3,5.1,12c0.7,1.3,1.2,2.3,1.6,3c0.3,0.5,0.6,0.9,0.6,1c0-0.2-0.5-1.8-1.4-4.9c-0.8-2.8-1.8-7.1-2.9-12.5
		c-0.5-2.7-1.1-5.7-1.6-9s-1.1-6.9-1.6-10.7c-1-7.6-2-16.2-2.7-25.6c-0.8-9.4-1.3-19.6-1.5-30.4c-0.1-10.8,0-22.1,1-33.6
		c0.4-5.7,1.2-11.5,2.3-17.1c0.2-1.5,0.6-2.8,0.9-4.2c0.1-0.7,0.3-1.3,0.5-2l0.3-1l0.1-0.3v-0.1l0.2-0.6c0.3-0.8,0.8-1.7,1.2-2.3
		c0.4-0.6,0.9-1,1.4-1.4s1.1-0.7,1.9-0.9c0.8-0.3,1.7-0.4,2.8-0.4c2.1,0,4.6,0.4,7.2,1.1c5.2,1.4,10.6,3.8,15.8,6.7
		c2.7,1.4,5.2,3,7.8,4.6c2.6,1.7,5.1,3.3,7.6,5.1c5,3.6,9.8,7.3,14.4,11.2c9.2,7.9,17.8,16.3,24.7,25.1c1.7,2.2,3.3,4.5,4.6,6.7
		c0.4,0.6,0.7,1.1,1,1.7l0.8,1.6c0.3,0.6,0.7,1.3,0.9,1.9c0.2,0.6,0.5,1.1,0.7,1.7c1.8,4.9,3,10.1,3.8,15.2
		c0.8,5.2,1.2,10.3,1.4,15.3c0.2,5,0.2,9.9,0,14.6c-0.2,4.7-0.5,9.2-0.8,13.5c-0.4,4.3-0.8,8.4-1.2,12.2c-0.8,7.7-1.8,14.3-2.7,19.8
		s-1.6,9.8-2.2,12.7c-0.6,2.9-0.9,4.5-0.9,4.5s0.2-0.5,0.6-1.5l-0.5,1.9c0,0,22.4-27.5,25.7-45.5c18,11.5,32.6,25.8,43.3,42.6
		c14.6,22.8,21.7,49.8,21.2,80.2c-0.5,29.2-3.6,61.4-6.8,95.4c-9.4,99-20.1,210.8,24.1,316l-266.4,95
		c-18.9-42.4-14.8-134.2-8.3-201.7c39.5-16.6,103.3-100.9,128.2-135.4L1126.2,63.6z M1413.5,343.5l-164,58.6l-237,84.5l-164.2,58.6
		L826.1,483l565.3-201.6L1413.5,343.5z"/>
	<path class="st0" d="M996.5-417.8c-4.6-16.2-21.7-27.2-48.2-31c-24.4-3.5-54.5-0.7-84.8,7.9c-30.3,8.6-57.3,22.1-76.2,38
		c-20.4,17.2-29.2,35.6-24.6,51.8c4.6,16.2,21.7,27.2,48.2,31c6.9,1,14.2,1.5,21.9,1.5c19.5,0,41.1-3.2,62.9-9.4
		c30.3-8.6,57.3-22.1,76.2-38C992.4-383.3,1001.1-401.7,996.5-417.8z M962.3-377.5c-17.3,14.5-42.3,27-70.6,35.1
		c-28.3,8.1-56.2,10.7-78.5,7.5c-20-2.9-33-10.3-35.9-20.3c-2.9-10,4.4-23.2,19.8-36.2c17.2-14.5,42.3-27,70.6-35.1
		c20.4-5.8,40.6-8.8,58.7-8.8c7,0,13.6,0.5,19.8,1.3c20,2.9,33.1,10.3,35.9,20.3C984.9-403.7,977.7-390.5,962.3-377.5z"/>
	<path class="st0" d="M729.4-330.5c-3.4-6-10.5-9.2-19.5-8.8c-7.3,0.3-15.6,2.9-23.4,7.3c-3.9,2.2-7.4,4.8-10.5,7.6
		c-3.1,2.8-5.7,5.8-7.6,8.9c-4.8,7.6-5.6,15.3-2.2,21.2c3.4,5.9,10,8.8,18.2,8.8c7.4,0,16.1-2.4,24.6-7.3
		C727-303.1,735.8-319.3,729.4-330.5z M701.6-305.8c-12.2,7-21.4,5.8-22.3,4.1c-0.3-0.5-0.2-2.5,1.8-5.7c2.6-4.1,7.3-8.3,12.9-11.5
		c2.8-1.6,5.7-2.9,8.5-3.8c2.8-0.9,5.5-1.5,8-1.5c0.3,0,0.5,0,0.8,0c3.2,0,4.8,0.8,5.1,1.3C717.3-321.4,713.8-312.8,701.6-305.8z"/>
</g>
</svg>
